<svg xmlns="http://www.w3.org/2000/svg" width="1021" height="426" viewBox="0 0 1021 426">
    <g fill="none" fill-rule="evenodd">
        <path fill="#6F8F9D" d="M29.836 280.66H8.761v-20.55H31.09v-3.174H5v53.48h27.343v-3.174H8.761v-23.407h21.075v-3.174zm12.85 29.756h3.76v-23.645c0-1.19.235-2.46.47-3.333 1.488-4.989 6.042-8.808 11.282-8.808 7.756 0 10.42 6.269 10.42 13.252v22.534h3.76v-22.852c0-14.282-9.548-16.107-13.162-16.107-6.11 0-10.89 3.411-12.927 7.696h-.157l-.235-6.824h-3.525c.235 3.016.313 5.634.313 9.125v28.962zm71.452-19.44c.157-.714.157-1.27.157-2.301 0-5.475-2.35-17.218-14.651-17.218-9.715 0-16.923 7.934-16.923 20.64 0 11.178 6.738 19.113 17.55 19.113 6.58 0 10.42-1.667 11.83-2.46l-.94-2.936c-2.116 1.032-4.936 2.143-10.42 2.143-7.757 0-14.328-4.84-14.328-16.98h27.725zm-27.5-3.005c.705-5.882 4.23-13.34 12.536-13.34 9.088 0 11.282 8.014 11.203 13.34H86.638zm38.312 22.445h3.76V289.39c0-1.27.079-2.539.314-3.65 1.019-6.11 4.7-10.632 9.872-10.632.705 0 1.253 0 1.802.079v-3.57c-.47-.08-1.019-.16-1.567-.16-5.093 0-9.01 3.73-10.655 8.57h-.235l-.157-7.697h-3.447c.235 3.73.313 7.618.313 11.426v26.661zm53.678-28.238c0-3.977.068-6.992.303-9.849h-3.447l-.235 6.428h-.157c-1.567-3.174-5.249-7.3-12.692-7.3-8.305 0-16.923 6.992-16.923 20.233 0 10.395 6.67 18.726 16.14 18.726 6.737 0 11.125-3.491 13.084-7.379h.156v5.396c0 11.267-5.72 15.393-13.632 15.393-4.858 0-8.54-1.428-11.204-3.174l-1.332 3.015c2.9 2.222 7.678 3.333 11.987 3.333 4.231 0 9.324-1.19 12.771-4.523 3.144-3.015 5.18-7.855 5.18-17.615v-22.684zm-3.77 12.448c0 1.349-.236 2.777-.628 4.047-1.958 5.405-6.66 8.57-11.673 8.57-8.854 0-13.31-7.38-13.31-15.95 0-10.077 5.475-16.663 13.466-16.663 6.19 0 10.107 4.127 11.674 8.65.392 1.11.47 2.3.47 3.729v7.617zm16.922 15.79h3.761V272.33h-3.76v38.087zm1.802-45.704c1.88 0 3.066-1.508 3.066-3.253 0-1.825-1.264-3.333-2.987-3.333-1.724 0-3.056 1.587-3.056 3.333 0 1.745 1.175 3.253 2.899 3.253h.078zm44.032 26.264c.156-.714.156-1.27.156-2.301 0-5.475-2.35-17.218-14.64-17.218-9.726 0-16.934 7.934-16.934 20.64 0 11.178 6.748 19.113 17.55 19.113 6.581 0 10.43-1.667 11.83-2.46l-.94-2.936c-2.115 1.032-4.936 2.143-10.42 2.143-7.756 0-14.337-4.84-14.337-16.98h27.735zm-27.5-3.005c.705-5.882 4.23-13.34 12.535-13.34 9.088 0 11.282 8.014 11.204 13.34h-23.74zm39.957 2.291h18.646v-3.333h-18.646v3.333zm30.477 20.154h3.76V284.55h20.528v-3.174h-20.527V260.11h22.329v-3.174h-26.09v53.48zm48.899.873c8.295 0 17.931-6.11 17.931-20.234 0-11.664-7.051-19.598-17.471-19.598-9.324 0-17.775 7.22-17.775 20.233 0 11.902 7.511 19.6 17.226 19.6h.089zm.068-3.174c-7.678 0-13.632-7.141-13.632-16.663 0-8.173 4.309-16.822 13.945-16.822 9.95 0 13.79 9.611 13.79 16.584 0 9.76-6.19 16.901-14.025 16.901h-.078zm28.519 2.301h3.76V289.39c0-1.27.088-2.539.314-3.65 1.028-6.11 4.7-10.632 9.871-10.632.706 0 1.254 0 1.802.079v-3.57c-.47-.08-1.018-.16-1.567-.16-5.092 0-9.01 3.73-10.655 8.57h-.235l-.157-7.697h-3.447c.235 3.73.314 7.618.314 11.426v26.661zm21.467-1.825c2.507 1.587 5.954 2.619 9.558 2.619 7.678 0 12.692-4.364 12.692-10.861 0-5.802-3.604-8.897-9.715-11.357-5.082-2.142-7.756-3.808-7.756-7.776 0-3.491 2.507-6.586 7.286-6.586 3.77 0 6.19 1.35 7.522 2.302l1.41-3.095c-1.88-1.349-4.858-2.38-8.305-2.38-7.286 0-11.595 4.76-11.595 10.315 0 4.602 3.369 8.014 9.558 10.394 5.406 2.222 7.913 4.444 7.913 8.65 0 3.967-2.82 7.22-8.775 7.22-3.369 0-6.415-1.349-8.461-2.619l-1.332 3.174zm58.212-2.856c-2.037.952-4.936 2.222-9.402 2.222-8.696 0-14.886-6.507-14.886-16.505 0-8.966 5.171-16.742 15.278-16.742 4.162 0 7.051 1.11 8.863 2.222l1.322-3.095c-1.41-1.032-5.25-2.38-9.872-2.38-11.194 0-19.342 8.172-19.342 20.313 0 11.426 7.198 19.44 18.01 19.44 5.485 0 9.402-1.667 11.047-2.46l-1.018-3.015zm11.204 4.681h3.76v-23.249c0-1.587.079-2.618.47-3.808 1.646-4.682 6.043-8.57 11.36-8.57 7.689 0 10.343 6.269 10.343 13.093v22.534h3.77v-22.931c0-14.203-9.558-16.028-13.094-16.028-2.82 0-5.406.872-7.6 2.221-2.193 1.35-3.995 3.333-5.092 5.475h-.157V254h-3.76v56.416zm72.167-38.087h-3.77v23.725c0 1.508-.304 3.016-.705 4.206-1.646 3.818-5.641 7.697-11.116 7.697-7.462 0-9.96-5.942-9.96-14.204V272.33h-3.75v22.138c0 14.362 8.07 16.822 12.829 16.822 6.679 0 10.978-4.126 12.859-7.697h.147l.254 6.824h3.516c-.225-2.936-.304-5.95-.304-9.283v-28.804zm13.79 38.087h3.75v-23.645c0-1.19.226-2.46.48-3.333 1.489-4.989 6.023-8.808 11.282-8.808 7.747 0 10.41 6.269 10.41 13.252v22.534h3.761v-22.852c0-14.282-9.558-16.107-13.152-16.107-6.121 0-10.91 3.411-12.937 7.696h-.147l-.255-6.824h-3.516c.226 3.016.324 5.634.324 9.125v28.962zm73.166-28.238c0-3.977.079-6.992.323-9.849h-3.457l-.235 6.428h-.147c-1.576-3.174-5.268-7.3-12.702-7.3-8.305 0-16.913 6.992-16.913 20.233 0 10.395 6.66 18.726 16.13 18.726 6.748 0 11.125-3.491 13.074-7.379h.176v5.396c0 11.267-5.719 15.393-13.642 15.393-4.857 0-8.55-1.428-11.204-3.174l-1.322 3.015c2.89 2.222 7.669 3.333 11.978 3.333 4.22 0 9.333-1.19 12.78-4.523 3.134-3.015 5.161-7.855 5.161-17.615v-22.684zm-3.75 12.448c0 1.349-.245 2.777-.627 4.047-1.979 5.405-6.66 8.57-11.674 8.57-8.853 0-13.329-7.38-13.329-15.95 0-10.077 5.484-16.663 13.486-16.663 6.18 0 10.097 4.127 11.663 8.65.382 1.11.48 2.3.48 3.729v7.617zm14.63 13.965c2.508 1.587 5.955 2.619 9.569 2.619 7.668 0 12.682-4.364 12.682-10.861 0-5.802-3.594-8.897-9.715-11.357-5.092-2.142-7.746-3.808-7.746-7.776 0-3.491 2.497-6.586 7.286-6.586 3.741 0 6.18 1.35 7.512 2.302l1.42-3.095c-1.9-1.349-4.858-2.38-8.305-2.38-7.286 0-11.605 4.76-11.605 10.315 0 4.602 3.359 8.014 9.558 10.394 5.416 2.222 7.923 4.444 7.923 8.65 0 3.967-2.83 7.22-8.785 7.22-3.369 0-6.424-1.349-8.452-2.619l-1.341 3.174zm28.216 1.825h29.204v-3.094h-24.445v-.159c1.42-1.746 2.684-3.491 4.006-5.237l20.292-27.058.078-2.539h-27.49v3.095h22.956v.159c-1.499 1.825-2.909 3.65-4.329 5.475l-20.272 27.057v2.301zm65.498-19.44c.147-.714.147-1.27.147-2.301 0-5.475-2.35-17.218-14.651-17.218-9.715 0-16.923 7.934-16.923 20.64 0 11.178 6.748 19.113 17.56 19.113 6.571 0 10.42-1.667 11.82-2.46l-.94-2.936c-2.106 1.032-4.936 2.143-10.43 2.143-7.747 0-14.318-4.84-14.318-16.98h27.735zm-27.51-3.005c.705-5.882 4.231-13.34 12.526-13.34 9.108 0 11.292 8.014 11.214 13.34h-23.74zm38.39 22.445h3.771v-23.645c0-1.19.225-2.46.46-3.333 1.489-4.989 6.043-8.808 11.282-8.808 7.767 0 10.42 6.269 10.42 13.252v22.534h3.771v-22.852c0-14.282-9.558-16.107-13.182-16.107-6.101 0-10.88 3.411-12.908 7.696h-.176l-.225-6.824h-3.516c.225 3.016.304 5.634.304 9.125v28.962zm44.59-45.07v6.983h-6.356v3.095h6.356v24.042c0 3.888.627 7.142 2.35 9.125 1.391 1.746 3.673 2.619 6.425 2.619 2.262 0 3.976-.397 5.24-.873l-.48-2.857c-.93.328-2.331.556-4.3.556-3.995 0-5.494-3.015-5.494-7.856v-24.756h10.753v-3.095h-10.753v-8.41l-3.74 1.428zm23.886 45.07h3.77V289.39c0-1.27.08-2.539.304-3.65 1.019-6.11 4.71-10.632 9.872-10.632.705 0 1.263 0 1.802.079v-3.57a9.431 9.431 0 0 0-1.577-.16c-5.082 0-9.01 3.73-10.655 8.57h-.225l-.157-7.697h-3.437c.225 3.73.303 7.618.303 11.426v26.661zm53.345-38.087h-3.741v23.725c0 1.508-.333 3.016-.715 4.206-1.645 3.818-5.641 7.697-11.125 7.697-7.443 0-9.95-5.942-9.95-14.204V272.33h-3.751v22.138c0 14.362 8.05 16.822 12.839 16.822 6.65 0 10.978-4.126 12.849-7.697h.157l.244 6.824h3.526c-.235-2.936-.333-5.95-.333-9.283v-28.804zm13.799 38.087h3.76V286.93c0-1.349.236-2.618.559-3.729 1.4-4.443 5.396-8.57 10.4-8.57 6.121 0 9.343 5.079 9.343 11.903v23.883h3.742v-24.439c0-1.428.333-2.698.636-3.799 1.489-3.977 5.18-7.548 9.872-7.548 6.503 0 9.793 5.079 9.793 13.648v22.138H911v-22.445c0-14.451-8.618-16.514-12.29-16.514-4.006 0-6.504 1.11-8.942 3.094-1.41 1.19-2.83 2.936-3.84 5.158h-.156c-1.645-4.761-5.64-8.252-10.802-8.252-6.2 0-9.793 3.173-12.222 7.538h-.157l-.245-6.666h-3.525c.235 3.016.313 5.634.313 9.125v28.962zM8.605 409.132V382.21c0-8.843-.079-14.606-.47-21.158l.156-.08c2.743 5.527 6.347 11.132 10.265 17.211l20.139 30.948h3.448v-53.22h-3.605v26.535c0 8.29.088 14.369.627 21.553l-.157.079c-2.586-5.132-5.632-10.105-9.952-16.737l-20.53-31.43H5v53.22h3.605zm48.661 0h3.771v-37.895h-3.771v37.895zm1.802-45.474c1.88 0 3.056-1.5 3.056-3.237 0-1.816-1.253-3.316-2.977-3.316s-3.056 1.58-3.056 3.316c0 1.737 1.175 3.237 2.909 3.237h.068zm44.039 26.131c.156-.71.156-1.263.156-2.289 0-5.447-2.35-17.132-14.653-17.132-9.717 0-16.926 7.895-16.926 20.537 0 11.121 6.74 19.016 17.563 19.016 6.572 0 10.412-1.658 11.822-2.447l-.94-2.921c-2.116 1.026-4.937 2.131-10.422 2.131-7.758 0-14.34-4.816-14.34-16.895h27.74zm-27.505-2.99c.705-5.852 4.232-13.273 12.538-13.273 9.09 0 11.293 7.974 11.205 13.273H75.602zM140.25 353v24.079h-.157c-1.645-3.316-5.798-6.71-12.302-6.71-9.247 0-17.004 7.894-16.926 20.536 0 11.28 6.906 19.095 16.22 19.095 6.975 0 11.441-3.868 13.4-8.053h.157l.313 7.185h3.37c-.235-2.685-.314-6-.314-8.764V353h-3.76zm0 40.816c0 1.194-.078 2.21-.382 3.158-1.577 6.237-6.67 9.868-12.077 9.868-8.933 0-13.165-7.816-13.165-16.342 0-9.79 5.182-16.974 13.4-16.974 6.112 0 10.579 4.185 11.842 9.237.304 1.105.382 2.448.382 3.474v7.579zm45.84-4.027c.157-.71.157-1.263.157-2.289 0-5.447-2.35-17.132-14.653-17.132-9.717 0-16.926 7.895-16.926 20.537 0 11.121 6.74 19.016 17.553 19.016 6.582 0 10.422-1.658 11.832-2.447l-.94-2.921c-2.116 1.026-4.937 2.131-10.422 2.131-7.758 0-14.34-4.816-14.34-16.895h27.74zm-27.504-2.99c.706-5.852 4.232-13.273 12.538-13.273 9.09 0 11.284 7.974 11.205 13.273h-23.743zm38.318 22.333h3.771V388.21c0-1.264.069-2.527.304-3.632C201.997 378.5 205.68 374 210.861 374c.696 0 1.244 0 1.793.079v-3.553c-.47-.079-1.019-.158-1.568-.158-5.093 0-9.01 3.71-10.656 8.527h-.236l-.156-7.658H196.6c.225 3.71.303 7.579.303 11.368v26.527zm21.47-1.816c2.508 1.579 5.956 2.605 9.56 2.605 7.68 0 12.695-4.342 12.695-10.806 0-5.773-3.604-8.852-9.716-11.3-5.094-2.13-7.758-3.789-7.758-7.736 0-3.474 2.507-6.553 7.287-6.553 3.762 0 6.19 1.342 7.523 2.29l1.42-3.08c-1.89-1.341-4.868-2.368-8.316-2.368-7.287 0-11.597 4.737-11.597 10.264 0 4.579 3.37 7.973 9.56 10.342 5.407 2.21 7.914 4.42 7.914 8.605 0 3.947-2.81 7.184-8.776 7.184-3.37 0-6.426-1.342-8.463-2.605l-1.332 3.158zm56.733-22.027c0-6.71-2.115-14.92-13.007-14.92-3.37 0-7.591.947-11.049 3.236l1.175 2.763c2.743-1.973 6.19-2.842 9.482-2.842 8.933-.079 9.638 7.421 9.638 11.132v1.026c-15.358-.168-22.95 5.132-22.95 13.895 0 5.053 3.439 10.421 11.05 10.421 6.023 0 10.186-3.395 12.057-6.316h.166l.54 5.448h3.447c-.47-2.921-.549-6-.549-9v-14.843zm-3.76 11.685c0 .631-.08 1.5-.393 2.29-1.253 3.71-4.858 7.578-11.127 7.578-3.918 0-7.522-2.447-7.522-7.895 0-9.079 10.813-10.342 19.041-10.095v8.122zm42 7.5c-2.037.947-4.937 2.21-9.403 2.21-8.698 0-14.888-6.473-14.888-16.42 0-8.922 5.171-16.659 15.28-16.659 4.153 0 7.052 1.106 8.854 2.21l1.332-3.078c-1.4-1.026-5.25-2.369-9.873-2.369-11.205 0-19.355 8.132-19.355 20.21 0 11.37 7.21 19.343 18.023 19.343 5.485 0 9.403-1.658 11.049-2.447l-1.019-3zm11.206 4.658h3.76V386c0-1.579.089-2.605.48-3.79 1.637-4.657 6.025-8.526 11.353-8.526 7.68 0 10.344 6.237 10.344 13.027v22.42h3.76v-22.815c0-14.132-9.55-15.948-13.085-15.948-2.821 0-5.407.869-7.601 2.21-2.194 1.343-3.996 3.317-5.093 5.448h-.157V353h-3.761v56.132zm40.277-1.816c2.507 1.579 5.955 2.605 9.56 2.605 7.679 0 12.694-4.342 12.694-10.806 0-5.773-3.595-8.852-9.717-11.3-5.093-2.13-7.758-3.789-7.758-7.736 0-3.474 2.508-6.553 7.288-6.553 3.761 0 6.2 1.342 7.522 2.29l1.411-3.08c-1.88-1.341-4.858-2.368-8.306-2.368-7.288 0-11.588 4.737-11.588 10.264 0 4.579 3.36 7.973 9.55 10.342 5.407 2.21 7.915 4.42 7.915 8.605 0 3.947-2.821 7.184-8.776 7.184-3.36 0-6.426-1.342-8.463-2.605l-1.332 3.158zm61.59-17.527c.167-.71.167-1.263.167-2.289 0-5.447-2.36-17.132-14.663-17.132-9.717 0-16.926 7.895-16.926 20.537 0 11.121 6.739 19.016 17.553 19.016 6.582 0 10.422-1.658 11.832-2.447l-.94-2.921c-2.116 1.026-4.937 2.131-10.422 2.131-7.758 0-14.34-4.816-14.34-16.895h27.74zm-27.504-2.99c.705-5.852 4.232-13.273 12.538-13.273 9.09 0 11.283 7.974 11.205 13.273h-23.743zm38.396 22.333h3.762v-23.527c0-1.184.235-2.447.47-3.316 1.489-4.963 6.034-8.763 11.284-8.763 7.757 0 10.431 6.237 10.431 13.185v22.42H467v-22.736c0-14.21-9.55-16.027-13.145-16.027-6.122 0-10.902 3.395-12.939 7.658h-.157l-.235-6.79h-3.526c.235 3 .313 5.606.313 9.08v28.816z"/>
        <path fill="#E46B2A" d="M118.938 136.801c.53-2.923 1.062-7.697 1.062-13.809C120 94.547 106.187 60 64.219 60 22.78 60 1 93.76 1 129.636 1 169.222 25.703 195 67.672 195c18.594 0 34-3.445 45.156-8.238l-4.781-22.313c-10.094 3.445-20.719 5.846-35.86 5.846-20.718 0-39.046-10.098-39.843-33.494h86.594zm-86.594-22.844c1.328-13.298 9.828-31.624 30.015-31.624 21.782 0 27.094 19.655 26.828 31.624H32.344z"/>
        <path fill="#9E9F9E" d="M180.974 192V86.813H209v-24.51H180.71v-6.647c0-15.988 5.289-29.569 21.418-29.569 6.081 0 10.312 1.075 14.014 2.407l2.115-25.308C213.232 1.588 206.357 0 197.642 0c-11.116 0-24.072 3.462-33.59 12.506-11.106 10.662-15.6 27.439-15.6 44.215v5.583H131v24.509h17.451V192h32.523zm38.594 0h108.409v-26.097h-67.69v-.533c6.61-6.933 12.692-14.38 19.038-22.102L326.4 82.286V62.304H224.328V88.41h62.4v.532c-6.61 7.447-12.162 13.848-18.772 21.827l-48.388 62.323V192zm129.826 0h32.523v-76.427c0-3.728.529-7.723 1.587-10.386 3.437-9.853 12.437-19.173 25.383-19.173 17.716 0 24.59 14.104 24.59 32.754V192H466v-76.96c0-41.01-23.268-55.666-45.733-55.666-21.428 0-35.441 12.26-41.249 22.38h-.803l-1.586-19.45h-28.292c.529 11.194 1.057 23.71 1.057 38.613V192z"/>
    </g>
</svg>
